<svg xmlns:xlink="http://www.w3.org/1999/xlink" width="229" xmlns="http://www.w3.org/2000/svg" height="224" id="screenshot-b44a7550-4e67-11ed-8159-85be0aefe076" viewBox="-4 -4 229 224" style="-webkit-print-color-adjust: exact;" fill="none" version="1.1"><g xmlns:xlink="http://www.w3.org/1999/xlink" xml:space="preserve" x="0px" id="shape-b44a7550-4e67-11ed-8159-85be0aefe076" style="fill: rgb(0, 0, 0);" ry="0" rx="0" y="0px" version="1.1"><g id="shape-b44badd0-4e67-11ed-8159-85be0aefe076"><style type="text/css" rx="0" ry="0" style="fill: rgb(0, 0, 0);"/></g><g id="shape-b44bfbf0-4e67-11ed-8159-85be0aefe076"><g id="fills-b44bfbf0-4e67-11ed-8159-85be0aefe076"><rect width="221" height="215.9999999999999" class="st0" x="2.0185865423627547e-8" transform="matrix(1,0,0,1,-0.000001,0.000001)" style="fill: rgb(255, 255, 255); fill-opacity: 1;" ry="0" rx="0" y="2.091553596983431e-8"/></g><g id="strokes-b44bfbf0-4e67-11ed-8159-85be0aefe076"><g class="stroke-shape"><rect width="221" height="215.9999999999999" class="st0" x="2.0185865423627547e-8" transform="matrix(1,0,0,1,-0.000001,0.000001)" style="fill: none; stroke-width: 8; stroke: rgb(0, 0, 0); stroke-opacity: 1;" ry="0" rx="0" y="2.091553596983431e-8"/></g></g></g><g id="shape-b44bfbf1-4e67-11ed-8159-85be0aefe076" rx="0" ry="0" style="fill: rgb(0, 0, 0);"><g id="shape-b44c2300-4e67-11ed-8159-85be0aefe076" rx="0" ry="0" style="fill: rgb(0, 0, 0);"><g id="shape-b44c4a10-4e67-11ed-8159-85be0aefe076" class="st1" rx="0" ry="0" style="fill: rgb(0, 0, 0);"><g id="shape-b44d5b80-4e67-11ed-8159-85be0aefe076"><g id="fills-b44d5b80-4e67-11ed-8159-85be0aefe076"><path class="st2" rx="0" ry="0" d="M104,167.865C104,106.165,104,105.365,104,105.365C104,96.865,110.9,89.965,120.2,89.965C151,89.965,151,89.965,151,89.965C151,105.365,151,105.365,151,105.365C127.9,105.365,127.9,105.365,127.9,105.365C123.3,105.365,120.2,109.265,120.2,113.865C120.2,152.365,120.2,152.365,120.2,152.365C171.8,152.365,171.8,152.365,171.8,152.365C171.8,167.765,171.8,167.765,171.8,167.765L104,167.765L104,167.865ZZ" style="fill: rgb(0, 0, 0); fill-opacity: 1;"/></g></g><g id="shape-b44da9a0-4e67-11ed-8159-85be0aefe076"><g id="fills-b44da9a0-4e67-11ed-8159-85be0aefe076"><path class="st2" rx="0" ry="0" d="M61.6,104.665C61.6,96.965,68.5,90.065,76.2,90.065C78.5,90.065,78.5,90.065,78.5,90.065C78.5,167.965,78.5,167.965,78.5,167.965C61.5,167.965,61.5,167.965,61.5,167.965L61.6,104.665ZL61.6,104.665ZZ" style="fill: rgb(0, 0, 0); fill-opacity: 1;"/></g></g><g id="shape-b44df7c0-4e67-11ed-8159-85be0aefe076"><g id="fills-b44df7c0-4e67-11ed-8159-85be0aefe076"><path class="st2" rx="0" ry="0" d="M36.1,66.865C36.1,57.565,43,50.665,52.3,50.665C171.8,50.665,171.8,50.665,171.8,50.665C171.8,66.065,171.8,66.865,171.8,66.865L36.1,66.865ZZ" style="fill: rgb(0, 0, 0); fill-opacity: 1;"/></g></g></g></g></g></g></svg>