<?xml version="1.0" standalone="no"?>
<!DOCTYPE svg PUBLIC "-//W3C//DTD SVG 20010904//EN"
 "http://www.w3.org/TR/2001/REC-SVG-20010904/DTD/svg10.dtd">
<svg version="1.0" xmlns="http://www.w3.org/2000/svg"
 width="480.000000pt" height="480.000000pt" viewBox="0 0 480.000000 480.000000"
 preserveAspectRatio="xMidYMid meet">
<metadata>
Created by potrace 1.14, written by Peter Selinger 2001-2017
</metadata>
<g transform="translate(0.000000,480.000000) scale(0.100000,-0.100000)"
fill="#000000" stroke="none">
<path d="M0 2400 l0 -2400 2400 0 2400 0 0 2400 0 2400 -2400 0 -2400 0 0
-2400z m3798 1073 l-3 -168 -1399 -3 -1399 -2 6 51 c12 98 82 204 162 247 79
41 58 41 1373 41 l1262 1 -2 -167z m-1920 -1445 l-3 -803 -178 -3 -178 -2 3
682 c3 678 3 683 25 730 58 126 158 196 286 197 l47 1 -2 -802z m1492 642 l0
-160 -256 0 c-243 0 -258 -1 -294 -21 -21 -12 -47 -38 -59 -59 -20 -37 -21
-48 -21 -459 l0 -421 528 -2 527 -3 3 -157 3 -158 -701 0 -700 0 0 668 c0 423
4 680 10 704 14 48 66 125 110 160 20 15 60 37 90 48 51 18 83 19 408 20 l352
0 0 -160z"/>
</g>
</svg>
