<?xml version="1.0" standalone="no"?>
<!DOCTYPE svg PUBLIC "-//W3C//DTD SVG 20010904//EN"
 "http://www.w3.org/TR/2001/REC-SVG-20010904/DTD/svg10.dtd">
<svg version="1.0" xmlns="http://www.w3.org/2000/svg"
 width="712.000000pt" height="712.000000pt" viewBox="0 0 712.000000 712.000000"
 preserveAspectRatio="xMidYMid meet">
<metadata>
Created by potrace 1.14, written by Peter Selinger 2001-2017
</metadata>
<g transform="translate(0.000000,712.000000) scale(0.100000,-0.100000)"
fill="#000000" stroke="none">
<path d="M1418 5905 c-2 -1 -21 -5 -43 -8 -63 -9 -191 -51 -205 -68 -3 -3 -19
-13 -37 -22 -44 -23 -208 -187 -186 -187 3 0 -1 -8 -11 -18 -35 -40 -80 -183
-91 -289 l-5 -53 2715 0 2715 0 1 28 c0 32 0 592 -1 609 0 9 -566 12 -2424 11
-1334 0 -2426 -1 -2428 -3z"/>
<path d="M2437 4334 c-1 -1 -24 -4 -52 -7 -27 -3 -61 -8 -74 -11 -36 -8 -181
-78 -181 -88 0 -4 -4 -8 -10 -8 -5 0 -33 -21 -61 -47 -92 -86 -152 -189 -186
-318 -3 -11 -7 -609 -10 -1330 l-4 -1310 338 0 338 1 0 1558 0 1559 -48 1
c-27 0 -49 0 -50 0z"/>
<path d="M4147 4334 c-1 -1 -22 -4 -47 -7 -71 -10 -145 -32 -190 -58 -8 -5
-28 -15 -45 -23 -41 -19 -69 -42 -132 -106 -96 -99 -147 -204 -169 -350 -7
-44 -5 -2552 1 -2559 4 -3 614 -6 1356 -6 l1349 -1 1 46 c0 49 0 524 -1 552 0
12 -8 18 -22 17 -25 0 -212 0 -240 1 -42 0 -56 0 -101 0 -27 0 -53 2 -58 5 -5
4 -9 1 -9 -5 0 -6 -5 -8 -11 -5 -6 4 -72 6 -147 6 -75 -1 -145 -1 -154 -1 -16
0 -28 -1 -85 -1 -10 0 -47 0 -83 0 -36 0 -73 1 -82 1 -10 -1 -47 -1 -83 -1
-36 0 -71 0 -77 0 -7 0 -42 0 -78 0 -36 1 -72 1 -80 1 -30 -1 -215 -1 -232 0
-42 0 -56 0 -101 0 -27 0 -53 2 -58 5 -5 4 -9 2 -9 -3 0 -6 -14 -7 -32 -3 -18
4 -48 4 -65 0 -18 -3 -33 -4 -33 0 0 5 -149 6 -176 0 -5 -1 -18 -1 -29 0 -20
1 -20 7 -18 768 0 423 4 794 7 825 5 56 40 143 74 183 59 71 138 101 267 103
55 0 102 2 105 3 3 1 9 1 13 0 22 -4 400 -2 404 2 2 3 16 2 31 -2 15 -4 43 -5
62 -1 19 3 48 3 64 0 15 -3 68 -4 116 -2 l88 3 4 44 c1 24 1 54 -2 66 -3 12
-3 47 0 78 3 31 3 78 0 104 -4 26 -4 50 -2 52 8 8 7 105 -1 105 -5 0 -5 4 -2
10 5 8 7 91 3 140 -1 14 -76 15 -645 15 -355 0 -645 0 -646 -1z"/>
</g>
</svg>
